<svg xmlns="http://www.w3.org/2000/svg" width="172" height="130" viewBox="0 0 172 130">
    <defs>
        <linearGradient id="ouerxw95ma" x1="0%" x2="100%" y1="50%" y2="50%">
            <stop offset="0%" stop-color="#57BAA5"/>
            <stop offset="100%" stop-color="#57BAA5"/>
        </linearGradient>
        <linearGradient id="m19lgtzleb" x1="0%" x2="100%" y1="50%" y2="50%">
            <stop offset="0%" stop-color="#ED7268"/>
            <stop offset="100%" stop-color="#ED7268"/>
        </linearGradient>
        <linearGradient id="qekddyk8mc" x1="0%" x2="100%" y1="50%" y2="50%">
            <stop offset="0%" stop-color="#ED7268"/>
            <stop offset="100%" stop-color="#ED7268"/>
        </linearGradient>
        <linearGradient id="b163foob4d" x1="0%" x2="100%" y1="50%" y2="50%">
            <stop offset="0%" stop-color="#FCCE7B"/>
            <stop offset="100%" stop-color="#FCCE7B"/>
        </linearGradient>
        <linearGradient id="mhtb0ejn2e" x1="204.4%" x2="40.1%" y1="1.6%" y2="59.1%">
            <stop offset="0%" stop-color="#5C2D90"/>
            <stop offset="100%" stop-color="#5C2D90"/>
        </linearGradient>
        <linearGradient id="ahp0lwon8f" x1="94.4%" x2="-66%" y1="355.9%" y2="-632.5%">
            <stop offset="0%" stop-color="#5C2D90"/>
            <stop offset="100%" stop-color="#5C2D90"/>
        </linearGradient>
        <linearGradient id="dlwmngy7fg" x1="0%" x2="100%" y1="50%" y2="50%">
            <stop offset="0%" stop-color="#5C2D90"/>
            <stop offset="100%" stop-color="#5C2D90"/>
        </linearGradient>
        <linearGradient id="pdn5mduz5h" x1="0%" x2="100%" y1="50%" y2="50%">
            <stop offset="0%" stop-color="#57BAA5"/>
            <stop offset="100%" stop-color="#57BAA5"/>
        </linearGradient>
        <linearGradient id="5guvji64ii" x1="0%" x2="100%" y1="50%" y2="50%">
            <stop offset="0%" stop-color="#5C2D90"/>
            <stop offset="100%" stop-color="#5C2D90"/>
        </linearGradient>
        <linearGradient id="vbkz2uednj" x1="0%" x2="100%" y1="50%" y2="50%">
            <stop offset="0%" stop-color="#FCCE7B"/>
            <stop offset="100%" stop-color="#FCCE7B"/>
        </linearGradient>
    </defs>
    <g fill="none" fill-rule="evenodd">
        <g fill-rule="nonzero">
            <g transform="translate(-764.000000, -285.000000) translate(764.000000, 285.000000)">
                <ellipse cx="85.731" cy="64.934" fill="#E5F0F9" rx="65.731" ry="64.934"/>
                <g>
                    <path fill="url(#ouerxw95ma)" d="M84.245 108.286s-55.86.665-71.418-14.285c-15.56-14.95-9.703-29.853 2.21-34.076 11.914-4.222 13.946-8.612 7.536-14.535S8.02 27.31 21.539 15.092c13.518-12.217 28.943 5.331 41.025 3.001 12.082-2.33 7.297-10.179 23.186-4.758 15.888 5.42 12.385-10.361 25.159-11.792 12.773-1.43 11.464 16.414 24.603 9.679 13.138-6.736 23.885-5.807 29.533 4.89 5.65 10.697 3.195 25.105-9.197 33.691-12.392 8.587-11.062 8.001-6.43 16.438 4.63 8.438 8.784 36.184-12.3 40.147-21.084 3.963-52.873 1.898-52.873 1.898z" transform="translate(0.000000, 9.000000)"/>
                    <g>
                        <path fill="#C2DEB7" d="M1.61 12.959C-.121 10.644-.483 7.58.663 4.926 1.808 2.272 4.285.433 7.156.105c2.872-.33 5.7.903 7.415 3.23 1.479 1.991 3.74 3.253 6.21 3.465 2.945.249 5.64 1.752 7.398 4.127v.001c1.79 2.41 4.597 3.851 7.597 3.901 3.638.057 7.042 1.804 9.207 4.728 3.85 5.19 2.771 12.516-2.413 16.365-5.183 3.85-12.508 2.763-16.36-2.426-.205-.278-.397-.561-.575-.85-1.74-2.828-4.57-4.815-7.821-5.492-3.624-.759-6.565-3.4-7.707-6.922-.676-2.09-2.326-3.722-4.423-4.377-1.631-.508-3.058-1.523-4.074-2.896z" transform="translate(0.000000, 9.000000) translate(0.061588, 34.693292)"/>
                        <path fill="#FFF" d="M43.04 30.25c-.045.025-.098.028-.145.007C21.609 21.071 7.898 8.791 7.762 8.668c-.046-.038-.068-.099-.057-.158.012-.059.055-.106.113-.124.057-.017.12-.002.162.04.136.123 13.81 12.369 35.043 21.532.057.024.095.079.099.14.003.062-.029.12-.082.151z" transform="translate(0.000000, 9.000000) translate(0.061588, 34.693292)"/>
                        <path fill="#FFF" d="M13.852 13.292c-.058.033-.13.028-.182-.014-.053-.042-.074-.111-.054-.175.681-2.237-1.198-7.093-1.217-7.142-.02-.055-.011-.116.025-.162.037-.045.095-.068.152-.059.058.01.106.048.127.102.08.204 1.94 5.011 1.225 7.356-.012.04-.04.074-.076.094z" transform="translate(0.000000, 9.000000) translate(0.061588, 34.693292)"/>
                        <path fill="#FFF" d="M13.725 13.386c-.01.007-.022.011-.034.015-.14.042-3.455 1.016-6.28.535-.058-.01-.106-.049-.126-.104-.02-.054-.01-.115.027-.16s.096-.067.153-.057c2.75.467 6.1-.517 6.133-.527.08-.023.164.016.196.092.033.077.003.165-.069.206zM23.933 20.143c-.054.03-.12.028-.172-.007-.05-.034-.078-.095-.07-.156.496-3.808-1.815-8.197-1.838-8.241-.021-.038-.026-.083-.014-.125.013-.041.042-.076.08-.096.039-.02.084-.024.125-.012.041.013.076.041.096.08.024.044 2.384 4.523 1.874 8.436-.007.05-.037.096-.08.12z" transform="translate(0.000000, 9.000000) translate(0.061588, 34.693292)"/>
                        <path fill="#FFF" d="M23.579 20.465c-.941.537-3.677 1.805-7.787 1.28-.059-.007-.11-.045-.132-.099-.024-.054-.016-.117.02-.163.036-.047.095-.07.153-.062 4.913.628 7.887-1.424 7.916-1.445.074-.052.176-.035.228.039.052.073.034.175-.04.227-.022.016-.144.1-.358.223zM36.084 28.153c-1.311.748-4.019 1.998-7.231 1.833-.09-.005-.16-.081-.155-.171.005-.09.081-.16.171-.155 4.407.227 7.834-2.277 7.868-2.303.047-.035.109-.042.162-.019.054.024.091.073.098.131.007.058-.018.116-.065.15-.273.193-.556.37-.848.534z" transform="translate(0.000000, 9.000000) translate(0.061588, 34.693292)"/>
                        <path fill="#FFF" d="M37 27.51c-.056.032-.126.028-.177-.01-.052-.038-.077-.103-.064-.166.008-.036.728-3.597-1.767-7.87-.022-.037-.028-.081-.017-.123.01-.042.038-.078.075-.1h.002c.078-.044.176-.018.221.06 2.563 4.387 1.837 7.952 1.805 8.101-.01.046-.038.085-.078.108z" transform="translate(0.000000, 9.000000) translate(0.061588, 34.693292)"/>
                    </g>
                    <g>
                        <path fill="#C2DEB7" d="M16.93 2.352C14.794.592 12.037-.226 9.287.08c-2.75.306-5.26 1.713-6.956 3.898C-1.242 8.541-.497 15.21 3.994 18.874c2.591 1.797 4.243 4.658 4.504 7.8.365 4.324 2.527 8.674 4.667 10.42 3.019 2.463 5.993 3.399 5.926 7.332-.078 4.605.63 12.022 4.438 15.129 6.504 5.306 15.97 4.251 21.144-2.357 5.174-6.607 4.095-16.266-2.409-21.572-.185-.127-.377-.244-.575-.349-3.986-2.235-6.82-6.134-7.757-10.669-.786-3.801-2.698-7.319-4.263-8.595-.602-.491-2.17-1.318-3.98-1.973-2.644-.971-4.667-3.14-5.452-5.845-.762-2.585-2.213-4.95-3.307-5.843z" transform="translate(0.000000, 9.000000) translate(12.846971, 6.939656)"/>
                        <path fill="#FFF" d="M37.252 57.572l-.011.005c-.041.016-.087.014-.126-.004-.04-.018-.071-.05-.087-.092-10.86-28.304-26.015-46.845-26.166-47.029-.058-.07-.05-.175.02-.235.033-.029.076-.042.12-.039.043.004.083.026.11.06.152.184 15.34 18.765 26.221 47.123.032.08-.003.172-.08.21z" transform="translate(0.000000, 9.000000) translate(12.846971, 6.939656)"/>
                        <path fill="#FFF" d="M16.72 18.46c-.01.004-.02.008-.03.01-3.03.818-9.115-1.851-9.373-1.965-.083-.038-.121-.136-.085-.22.016-.04.048-.072.089-.089.04-.016.086-.015.126.002.062.028 6.238 2.738 9.159 1.95.042-.011.087-.005.125.017.037.023.065.06.075.102.021.077-.015.157-.087.193z" transform="translate(0.000000, 9.000000) translate(12.846971, 6.939656)"/>
                        <path fill="#FFF" d="M16.846 18.298c-.038.018-.083.021-.123.007-.086-.03-.132-.125-.103-.212.014-.043 1.428-4.397.945-8.037-.01-.059.014-.118.06-.155.048-.036.11-.045.166-.022.054.024.092.075.099.134.493 3.718-.945 8.144-.96 8.188-.013.042-.044.077-.084.097zM25.089 32.018c-.018.009-.036.014-.056.016-5.038.474-10.68-2.834-10.737-2.867-.078-.047-.105-.149-.06-.229.022-.038.057-.065.1-.077.042-.011.086-.005.124.017.056.033 5.61 3.288 10.542 2.823.08-.006.152.046.173.123.021.077-.015.158-.086.194z" transform="translate(0.000000, 9.000000) translate(12.846971, 6.939656)"/>
                        <path fill="#FFF" d="M25.228 32.011c-.055.027-.121.02-.17-.018-.072-.057-.086-.16-.031-.234.028-.038 2.807-3.849 2.21-10.342-.008-.09.059-.17.149-.178.09-.008.17.058.178.148.609 6.63-2.247 10.537-2.276 10.575-.016.021-.036.038-.06.05zM34.15 49.41c-.056.028-.124.02-.173-.02-.07-.058-.082-.162-.026-.234.034-.044 3.413-4.433 3.312-10.234-.001-.044.015-.087.045-.119.03-.031.072-.05.116-.05.092 0 .166.073.167.164.102 5.925-3.349 10.403-3.384 10.448-.015.02-.034.035-.056.046z" transform="translate(0.000000, 9.000000) translate(12.846971, 6.939656)"/>
                        <path fill="#FFF" d="M33.992 49.516c-.013.006-.027.01-.042.013-.047.009-4.79.808-10.305-2.76-.076-.05-.1-.152-.051-.23.023-.037.06-.064.102-.074.043-.01.088-.001.124.023 5.408 3.498 10.026 2.72 10.072 2.713.044-.008.088.002.124.028.035.025.06.064.067.107.013.073-.024.147-.09.18z" transform="translate(0.000000, 9.000000) translate(12.846971, 6.939656)"/>
                    </g>
                    <g>
                        <path fill="#C2DEB7" d="M26.016 4.622c2.088-2.576 5.13-4.198 8.432-4.496 3.303-.298 6.585.754 9.1 2.914 5.286 4.504 6.006 12.513 1.61 17.89-2.614 2.729-3.87 6.484-3.424 10.237.605 5.163-.894 10.788-2.988 13.35-2.956 3.614-6.225 5.424-5.206 10.027 1.193 5.388 2.136 14.267-1.593 18.826-6.369 7.787-17.737 8.812-25.392 2.29-7.655-6.522-8.698-18.122-2.33-25.908.187-.193.384-.376.592-.547 4.146-3.578 6.54-8.834 6.557-14.383.015-4.652 1.419-9.24 2.95-11.112.59-.722 2.233-2.066 4.203-3.27 2.856-1.743 4.714-4.78 5.004-8.166.275-3.217 1.413-6.342 2.485-7.652z" transform="translate(0.000000, 9.000000) translate(113.025121, 0.001247)"/>
                        <path fill="#FFF" d="M15.358 74.324l.015.003c.051.009.104-.003.147-.034.042-.03.07-.077.079-.129 5.985-35.834 19.345-61.23 19.48-61.481.051-.097.016-.218-.08-.272-.045-.026-.1-.031-.15-.016-.05.015-.092.05-.116.096-.134.253-13.524 25.702-19.52 61.605-.019.102.045.201.145.228z" transform="translate(0.000000, 9.000000) translate(113.025121, 0.001247)"/>
                        <path fill="#FFF" d="M30.116 23.487c.012.003.024.005.036.005 3.754.236 10.261-4.354 10.537-4.55.088-.064.11-.188.048-.279-.03-.043-.075-.073-.126-.082-.052-.01-.105.002-.147.032-.067.047-6.671 4.707-10.29 4.48-.052-.003-.103.015-.142.05-.039.036-.062.085-.064.137-.006.096.056.182.148.207z" transform="translate(0.000000, 9.000000) translate(113.025121, 0.001247)"/>
                        <path fill="#FFF" d="M29.928 23.326c.05.013.102.006.146-.02.094-.057.125-.179.07-.274-.027-.048-2.728-4.822-3.032-9.212-.004-.07-.046-.132-.109-.164-.063-.03-.138-.026-.196.014-.059.04-.091.107-.086.177.31 4.484 3.057 9.337 3.085 9.386.026.046.07.08.122.093zM23.53 41.408c.023.006.046.008.069.005 6.03-.647 11.864-5.881 11.922-5.934.081-.074.088-.2.016-.282-.034-.04-.083-.064-.135-.067-.052-.004-.103.014-.142.05-.057.052-5.8 5.201-11.704 5.835-.095.013-.168.09-.174.186-.007.096.055.182.148.207z" transform="translate(0.000000, 9.000000) translate(113.025121, 0.001247)"/>
                        <path fill="#FFF" d="M23.365 41.434c.071.018.147-.006.195-.062.071-.084.063-.21-.019-.283-.042-.037-4.217-3.848-5.069-11.616-.005-.072-.049-.136-.114-.166-.066-.03-.143-.021-.2.023-.058.043-.087.115-.076.187.87 7.931 5.158 11.835 5.202 11.873.023.021.05.036.08.044zM17.049 64c.073.018.15-.007.198-.066.07-.085.058-.21-.025-.282-.05-.043-5.067-4.388-6.337-11.225-.009-.052-.038-.098-.081-.128-.043-.03-.096-.042-.148-.032-.107.021-.177.126-.156.233 1.296 6.982 6.42 11.415 6.471 11.459.023.02.05.033.078.04z" transform="translate(0.000000, 9.000000) translate(113.025121, 0.001247)"/>
                        <path fill="#FFF" d="M17.26 64.084c.017.005.035.007.052.006.058 0 5.818-.197 11.44-5.705.08-.077.081-.203.006-.283-.036-.038-.085-.06-.137-.061-.053-.001-.103.019-.14.055-5.514 5.402-11.123 5.593-11.179 5.594-.052.002-.102.024-.138.063-.036.038-.055.09-.053.142.002.089.062.166.149.19z" transform="translate(0.000000, 9.000000) translate(113.025121, 0.001247)"/>
                    </g>
                    <g>
                        <path fill="#C2DEB7" d="M36.806 9.966c1.449-3.746-.398-7.96-4.134-9.434-1.79-.707-3.788-.67-5.55.102-1.763.772-3.145 2.215-3.84 4.01-.804 2.077-2.464 3.707-4.555 4.473-2.494.909-4.473 2.851-5.428 5.327v.001c-.974 2.514-3.065 4.428-5.654 5.178-3.14.904-5.676 3.226-6.853 6.275-2.101 5.417.58 11.535 5.988 13.663 2.592 1.024 5.485.971 8.038-.147 2.553-1.118 4.554-3.208 5.56-5.808.113-.29.211-.58.296-.874.833-2.865 2.812-5.258 5.47-6.613 2.962-1.517 4.882-4.507 5.03-7.83.087-1.974 1.128-3.782 2.791-4.847 1.294-.826 2.289-2.044 2.841-3.476z" transform="translate(0.000000, 9.000000) translate(133.450549, 62.446927)"/>
                        <path fill="#FFF" d="M3.756 33.523c.03-.003.058-.013.083-.03C21.212 22.028 31.396 8.992 31.496 8.862c.062-.079.048-.192-.03-.254-.08-.061-.193-.047-.254.031-.1.13-10.251 13.122-27.571 24.554-.07.045-.098.132-.07.21.026.078.103.128.185.12z" transform="translate(0.000000, 9.000000) translate(133.450549, 62.446927)"/>
                        <path fill="#FFF" d="M26.881 13.932c.023-.002.046-.008.066-.018.089-.046.123-.155.078-.243-.952-1.87-.061-6.46-.052-6.506.02-.098-.044-.193-.142-.213-.047-.01-.095 0-.135.027-.04.026-.067.067-.076.114-.039.194-.924 4.761.085 6.741.033.066.103.105.176.098z" transform="translate(0.000000, 9.000000) translate(133.450549, 62.446927)"/>
                        <path fill="#FFF" d="M30.04 14.019c.843-.074 1.753-.229 2.586-.526.094-.034.143-.137.11-.231-.034-.094-.138-.143-.232-.11-2.352.84-5.46.489-5.49.485-.048-.006-.096.008-.134.038-.037.03-.06.073-.066.12-.011.1.06.19.158.201 1.02.102 2.047.11 3.068.023zM19.052 21.58c.013 0 .025-.003.038-.007.095-.03.147-.131.117-.226-1.039-3.292.307-7.537.32-7.58.03-.095-.02-.197-.116-.228-.045-.015-.094-.01-.137.01-.043.023-.075.06-.09.106-.057.178-1.395 4.396-.32 7.8.025.08.103.133.188.126z" transform="translate(0.000000, 9.000000) translate(133.450549, 62.446927)"/>
                        <path fill="#FFF" d="M23.678 22.282c.941-.085 1.87-.271 2.772-.555.094-.03.146-.131.116-.226-.03-.094-.13-.148-.224-.12-4.24 1.321-7.176-.035-7.205-.049-.043-.02-.092-.023-.137-.007-.045.016-.082.05-.102.093-.043.09-.004.198.086.24.096.046 1.88.87 4.694.624zM14.787 31.296c.477-.042.95-.116 1.415-.222.096-.025.154-.12.132-.216-.022-.096-.117-.157-.213-.137-3.844.883-7.266-.8-7.3-.817-.043-.022-.092-.025-.137-.01-.046.015-.083.048-.104.09-.044.09-.008.198.08.243.032.015 2.767 1.364 6.127 1.069z" transform="translate(0.000000, 9.000000) translate(133.450549, 62.446927)"/>
                        <path fill="#FFF" d="M8.664 30.152c.057-.005.108-.037.138-.086.03-.05.034-.11.012-.162-.012-.03-1.207-3.069.318-7.235.034-.093-.014-.197-.107-.232-.045-.017-.095-.015-.138.005-.043.02-.077.057-.093.102-1.576 4.305-.365 7.368-.313 7.496.03.073.104.118.183.112z" transform="translate(0.000000, 9.000000) translate(133.450549, 62.446927)"/>
                    </g>
                    <g transform="translate(0.000000, 9.000000) translate(14.562083, 27.598963)">
                        <g>
                            <path fill="url(#m19lgtzleb)" d="M125.237 75.304c-.004 1.221-.993 2.21-2.214 2.213H3.263c-1.222-.003-2.211-.992-2.216-2.213L.051 6.481c0-1.217 1.434-3.592 4.062-3.414L121.156.04c1.527-.04 3.005.547 4.087 1.626 1.082 1.079 1.675 2.554 1.64 4.082l-1.645 69.557z" transform="translate(7.640046, 0.000000)"/>
                            <path fill="#DDE5F5" d="M123.051 73.182c-.003 1.155-.94 2.091-2.095 2.095H6.15c-1.156-.004-2.092-.94-2.095-2.095l-.94-62.479c.11-3.76 3.406-5.11 5.405-5.031l112.175-3.01c1.074-.028 2.113.386 2.873 1.145.76.758 1.177 1.796 1.152 2.87l-1.669 66.505z" transform="translate(7.640046, 0.000000)"/>
                            <g fill="#FFF">
                                <path d="M.696 37.36c-.092 0-.168-.075-.17-.168l-.074-5.067c0-.093.074-.17.167-.171.093 0 .17.074.172.167l.074 5.067c.001.093-.073.17-.167.172H.696zM.514 24.943c-.093 0-.168-.075-.17-.167L.06 5.37c.005-1.296.405-2.331 1.186-3.08C2.668.926 4.893.994 4.988.998L40.81.037c.093 0 .17.072.174.165.002.094-.071.172-.165.174l-35.832.961c-.1-.004-2.187-.067-3.507 1.197C.768 3.217.403 4.17.398 5.368l.285 19.403c.001.093-.074.17-.167.172H.514z" transform="translate(7.640046, 0.000000) translate(4.599619, 6.002893)"/>
                            </g>
                            <path fill="#FFF" d="M9.113 69.716c.12-5.164.075-50.892-.22-54.841-.297-3.95 5.853-4.69 15.297-5.135 9.443-.444 89.119-2.204 91.17-2.37 4.611-.374 5.566 6.519 5.104 21.481-.346 11.242-.92 29.76-1.184 38.277-.079 2.534-2.153 4.55-4.689 4.554-19.173.053-92.658.264-97.55.41-5.63.167-7.976-.329-7.928-2.376z" transform="translate(7.640046, 0.000000)"/>
                        </g>
                        <rect width="141.193" height="6.047" x=".057" y="74.982" fill="url(#qekddyk8mc)" rx="1.136"/>
                    </g>
                    <g transform="translate(0.000000, 9.000000) translate(8.325311, 57.769348)">
                        <g>
                            <path fill="url(#b163foob4d)" d="M38.032 2.36c.203 7.266.863 32.329.548 41.21-.033.942-.885 1.697-1.948 1.728-5.257.152-24.526.538-33.124.218-1.79-.066-3.214-1.35-3.252-2.937C.078 34.953-.316 13.502.62 3.676.733 2.498 1.776 1.56 3.104 1.443 8.83.936 28.181-.303 35.61.123c1.34.077 2.39 1.049 2.423 2.237z"/>
                            <rect width="33.696" height="10.434" x="2.826" y="3.426" fill="#DDE5F5" rx="4.151"/>
                            <path fill="#FFF" d="M4.39 5.261c.265-.264.624-.412.998-.411L32.92 4.9c.736.002 1.347.57 1.403 1.303l.463 6.117c.038.5-.792.907-1.84.901L5.878 13.07c-1.047-.006-1.905-.421-1.905-.92l.002-5.89c0-.375.15-.734.414-.998z"/>
                        </g>
                        <path fill="#FFF" d="M29.167 20.102c0 1.087.88 1.967 1.967 1.968h2.395c1.086 0 1.967-.881 1.967-1.968 0-1.086-.881-1.967-1.967-1.967h-2.395c-1.086 0-1.967.881-1.967 1.967zM20.273 20.102c0 1.087.88 1.967 1.967 1.968h2.394c1.087 0 1.967-.881 1.967-1.968 0-1.086-.88-1.967-1.967-1.967H22.24c-1.087 0-1.967.881-1.967 1.967zM11.72 20.102c0 1.087.881 1.967 1.967 1.968h2.395c1.086 0 1.967-.881 1.967-1.968 0-1.086-.88-1.967-1.967-1.967h-2.395c-1.086 0-1.967.881-1.967 1.967zM3.051 20.391c0 .53.21 1.039.585 1.414s.884.585 1.414.585h2.314c.53 0 1.039-.21 1.414-.585s.585-.884.585-1.414c0-.53-.21-1.038-.585-1.413s-.884-.586-1.414-.586H5.05c-.53 0-1.039.211-1.414.586-.374.375-.585.883-.585 1.413zM29.167 26.26c0 .522.207 1.022.576 1.391s.87.576 1.391.576h2.395c.521 0 1.022-.207 1.39-.576.37-.369.577-.87.577-1.39 0-.523-.208-1.023-.576-1.392-.37-.369-.87-.576-1.391-.576h-2.395c-.522 0-1.022.207-1.39.576-.37.37-.577.87-.577 1.391zM20.273 26.26c0 .522.207 1.022.576 1.391s.869.576 1.39.576h2.395c1.087 0 1.967-.88 1.967-1.967 0-1.086-.88-1.967-1.967-1.967H22.24c-.522 0-1.022.207-1.391.576-.37.37-.576.87-.576 1.391zM11.72 26.26c0 .522.208 1.022.576 1.391.37.369.87.576 1.391.576h2.395c.522 0 1.022-.207 1.39-.576.37-.369.577-.87.577-1.39 0-.523-.207-1.023-.576-1.392s-.87-.576-1.391-.576h-2.395c-.521 0-1.022.207-1.39.576-.37.37-.577.87-.577 1.391zM2.826 26.26c0 .522.207 1.022.576 1.391s.87.576 1.391.576h2.395c1.086 0 1.967-.88 1.967-1.967 0-1.086-.88-1.967-1.967-1.967H4.793c-.521 0-1.022.207-1.39.576-.37.37-.577.87-.577 1.391z"/>
                        <g fill="#FFF">
                            <path d="M17.473 2.01c0 .523.207 1.023.576 1.392s.87.576 1.391.576h2.395c.521 0 1.022-.207 1.39-.576.37-.37.577-.87.577-1.391 0-.522-.208-1.022-.576-1.391-.37-.369-.87-.576-1.391-.576H19.44c-.522 0-1.022.207-1.39.576-.37.369-.577.87-.577 1.39zM8.579 2.01c0 .523.207 1.023.576 1.392s.869.576 1.39.576h2.395c1.087 0 1.967-.88 1.967-1.967 0-1.086-.88-1.967-1.967-1.967h-2.394c-.522 0-1.022.207-1.391.576-.37.369-.576.87-.576 1.39zM.026 2.01c0 .523.208 1.023.577 1.392.368.369.869.576 1.39.576h2.395c.522 0 1.022-.207 1.39-.576.37-.37.577-.87.577-1.391 0-.522-.207-1.022-.576-1.391S4.909.044 4.388.044H1.993C1.472.044.971.25.603.62c-.37.369-.577.87-.577 1.39z" transform="translate(11.693947, 29.702627)"/>
                        </g>
                        <g fill="#FFF">
                            <path d="M17.473 1.995c0 .521.207 1.022.576 1.39.369.37.87.577 1.391.577h2.395c.521 0 1.022-.208 1.39-.576.37-.37.577-.87.577-1.391 0-1.087-.881-1.967-1.967-1.967H19.44c-.522 0-1.022.207-1.39.576-.37.369-.577.869-.577 1.39zM8.579 1.995c0 .521.207 1.022.576 1.39.369.37.869.577 1.39.577h2.395c1.087 0 1.967-.881 1.967-1.967 0-1.087-.88-1.967-1.967-1.967h-2.394c-.522 0-1.022.207-1.391.576-.37.369-.576.869-.576 1.39zM.026 1.995c0 .521.208 1.022.577 1.39.368.37.869.577 1.39.577h2.395c.522 0 1.022-.208 1.39-.577.37-.368.577-.869.577-1.39 0-.522-.207-1.022-.576-1.391-.369-.37-.87-.576-1.391-.576H1.993C1.472.028.971.235.603.604c-.37.369-.577.869-.577 1.39z" transform="translate(11.693947, 35.705520)"/>
                        </g>
                        <rect width="5.131" height="9.75" x="3.681" y="30.28" fill="#FFF" rx="2.566"/>
                    </g>
                    <g>
                        <g>
                            <path fill="#DDE5F5" d="M29.852 6.984l22.562.823s-8.222.113-7.311 10.51c.91 10.398 5.543 40.759-6.223 40.789-11.765.03-11.954-5.344-11.954-5.344l2.926-46.778z" transform="translate(0.000000, 9.000000) translate(32.492802, 12.474791) translate(59.717092, 28.065474)"/>
                            <path fill="url(#mhtb0ejn2e)" d="M19.316 2.105l8.72-2.03s5.831-.524 6.62 4.658c.789 5.183.56 35.887.313 42.22-.247 6.332.347 11.202 3.911 12.153l-25.925.448 6.36-57.45z" transform="translate(0.000000, 9.000000) translate(32.492802, 12.474791) translate(59.717092, 28.065474)"/>
                            <path fill="#DDE5F5" d="M1.586 2.527s15.88.872 26.45-2.452c0 0-7.027-.482-7.027 15.743 0 12.404 1.84 36.08.234 40.575-1.607 4.495-7.613 10.536-16.222 5.344-8.61-5.192-3.435-59.21-3.435-59.21z" transform="translate(0.000000, 9.000000) translate(32.492802, 12.474791) translate(59.717092, 28.065474)"/>
                            <path fill="#FFF" d="M18.947 37.993c-.146 0-.265-.117-.267-.262 0-.008-.017-.85-.098-3.736-.004-.147.112-.27.26-.274.147-.005.27.112.275.26.08 2.888.097 3.731.097 3.74.003.147-.114.27-.262.272h-.005zM18.753 30.95c-.145 0-.263-.115-.267-.26-.058-1.877-.147-3.954-.242-6.152-.128-2.97-.26-6.041-.33-9-.185-7.808 1.103-10.806 2.216-11.945.605-.62 1.112-.638 1.168-.638.147-.001.268.117.27.265.001.148-.117.268-.265.27-.06.004-3.131.342-2.855 12.036.07 2.953.202 6.021.33 8.99.095 2.2.185 4.277.242 6.159.004.147-.112.27-.26.275h-.007z" style="mix-blend-mode:soft-light" transform="translate(0.000000, 9.000000) translate(32.492802, 12.474791) translate(59.717092, 28.065474)"/>
                        </g>
                        <g>
                            <path fill="url(#ahp0lwon8f)" d="M57.082 6.268s17.52 1.91 19.777-1.06c0 0-1.795-5.345-7.127-4.989-5.332.356-12.65 6.049-12.65 6.049z" transform="translate(0.000000, 9.000000) translate(32.492802, 12.474791)"/>
                            <path fill="url(#dlwmngy7fg)" d="M.099 12.281c1.528 17.17 4.737 53.487 6.133 71.178.31 3.944 3.473 7.06 7.42 7.313 14.064.902 45.714 2.654 57.86 1.024-2.782-1.371-4.534-4.214-4.509-7.316l.645-79.385c.023-2.805 2.817-4.82 5.444-3.836 1.654.62 2.907 1.941 3.767 3.95-1.147-3.343-2.95-5.787-7.127-4.99 0 0-40.853.409-60.677 1.637-2.583.161-4.992 1.36-6.678 3.323C.69 7.142-.131 9.703.099 12.28z" transform="translate(0.000000, 9.000000) translate(32.492802, 12.474791)"/>
                            <path fill="#DDE5F5" d="M10.205 4.129l54.894-2.113c-2.264 16.761-1.309 50.895-.444 84.535.05 1.994 1.22 3.79 3.025 4.641 0 0-36.615.422-52.347-.693-3.704-.265-6.728-3.066-7.276-6.739C5.897 69.348.73 32.115 1.805 12.403c.244-4.513 3.884-8.099 8.4-8.274z" transform="translate(0.000000, 9.000000) translate(32.492802, 12.474791)"/>
                            <g fill="#FFF">
                                <path d="M1.645 1.13C9.363.945 38.989.202 46.47.014c.944-.024 1.724.56 1.724 1.289 0 .694-.71 1.263-1.609 1.29L1.79 3.875C.926 3.901.18 3.414.069 2.753l-.028-.167C-.086 1.83.658 1.154 1.645 1.13zM1.16 9.236c.157.181.388.28.626.268l30.76-.516c.386-.007.695-.25.695-.549V6.874c0-.311-.334-.56-.737-.549L2.602 7.19C1.27 7.227.478 8.353 1.16 9.236z" transform="translate(0.000000, 9.000000) translate(32.492802, 12.474791) translate(8.887400, 21.516863)"/>
                            </g>
                            <g fill="#DDE5F5">
                                <path d="M1.328.04c5.826.058 28.193.253 33.84.302.346.007.673.154.908.407s.357.59.338.935c-.022.686-.581 1.232-1.267 1.237L1.32 2.787c-.658-.009-1.2-.52-1.249-1.176l-.014-.168C.024 1.084.142.728.383.46.625.194.968.04 1.328.039z" transform="translate(0.000000, 9.000000) translate(32.492802, 12.474791) translate(11.927826, 80.532318)"/>
                            </g>
                            <g fill="#5C2D90">
                                <path d="M.237 8.568L.035.924 1.374.888 1.576 8.532zM8.545 8.348l-1.735.045L4.3 2.92l-.068.002c.101.445.157.9.166 1.356l.11 4.177-1.317.035L2.99.845 4.735.8l2.487 5.417.058-.001c-.083-.43-.128-.867-.134-1.305L7.036.738 8.343.703l.202 7.645zM12.98.58l1.433-.037-1.596 7.692-1.809.047L9.018.686 10.45.648l1.123 4.642c.101.395.205.963.312 1.703.056-.633.134-1.205.232-1.717L12.98.581zM20.287 4.202c.033 1.265-.178 2.244-.634 2.936-.457.693-1.126 1.05-2.007 1.074-.886.023-1.574-.298-2.066-.963-.492-.666-.755-1.636-.789-2.912-.033-1.265.178-2.241.634-2.929.456-.687 1.13-1.042 2.023-1.066.882-.023 1.567.298 2.056.964.488.665.75 1.63.783 2.896zm-4.042.107c.023.871.15 1.533.382 1.983.231.451.56.67.985.66.858-.023 1.263-.927 1.216-2.711-.048-1.785-.496-2.666-1.347-2.644-.432.012-.752.248-.96.709-.207.46-.3 1.128-.276 2.003zM21.758 7.998L21.556.354 22.894.318 23.096 7.963zM27.075 1.343c-.407.011-.723.258-.945.742-.223.484-.323 1.151-.3 2.001.046 1.771.532 2.644 1.455 2.62.405-.01.825-.15 1.26-.42l.034 1.265c-.366.257-.84.394-1.423.409-.86.023-1.531-.302-2.011-.975-.48-.673-.736-1.63-.77-2.87-.032-1.241.18-2.215.638-2.921C25.47.488 26.123.124 26.97.1c.271-.008.543.023.805.093.295.087.576.215.834.381l-.44 1.168c-.163-.106-.333-.2-.51-.282-.182-.085-.382-.125-.584-.118zM33.114 7.698L29.668 7.789 29.466.145 32.911.053 32.944 1.282 30.921 1.336 30.969 3.155 32.846 3.106 32.878 4.339 31.001 4.389 31.057 6.507 33.081 6.453z" transform="translate(0.000000, 9.000000) translate(32.492802, 12.474791) translate(16.683365, 8.107804)"/>
                            </g>
                            <g>
                                <path fill="#DDE5F5" d="M50.664 39.005H4.786c-.593-.007-1.084-.464-1.133-1.055L.243 2.504c-.035-.32.064-.64.275-.884.21-.244.512-.389.834-.4l47.535-1c.624-.004 1.139.489 1.16 1.113L51.8 37.777c.02.315-.09.625-.305.857-.215.232-.515.366-.831.37z" transform="translate(0.000000, 9.000000) translate(32.492802, 12.474791) translate(7.250247, 35.627560)"/>
                                <path fill="#FFF" d="M50.664 39.201H4.786c-.695-.005-1.272-.54-1.329-1.232L.047 2.523C.01 2.14.134 1.758.39 1.47c.243-.277.59-.439.96-.446L48.882.024c.732-.01 1.337.568 1.36 1.3l1.754 36.444c.018.377-.119.746-.378 1.02-.248.264-.594.414-.955.413zM48.91.417h-.02l-47.535.999c-.258.005-.503.12-.674.314-.182.207-.27.48-.244.756l3.41 35.445c.039.491.445.872.938.877h45.878c.254 0 .496-.105.67-.29.187-.196.285-.46.27-.732L49.851 1.342c-.014-.51-.429-.92-.94-.925z" transform="translate(0.000000, 9.000000) translate(32.492802, 12.474791) translate(7.250247, 35.627560)"/>
                                <path fill="#FFF" d="M39.913 38.898c-.103 0-.19-.08-.196-.183L37.265 1.057c-.007-.108.075-.201.183-.208.108-.008.202.074.209.183l2.452 37.657c.003.052-.014.103-.048.142-.035.04-.083.064-.135.067h-.013z" transform="translate(0.000000, 9.000000) translate(32.492802, 12.474791) translate(7.250247, 35.627560)"/>
                                <path fill="#FFF" d="M1.207 6.487c-.098 0-.19-.05-.24-.135-.05-.085-.051-.19-.003-.275.048-.086.138-.14.237-.14l48.624-1.084c.152-.003.278.117.281.269.004.152-.117.278-.269.281L1.213 6.487h-.006z" transform="translate(0.000000, 9.000000) translate(32.492802, 12.474791) translate(7.250247, 35.627560)"/>
                                <path fill="#FFF" d="M1.207 12.386c-.07 0-.136-.036-.172-.097-.035-.06-.036-.135-.002-.196.035-.061.099-.1.17-.1l49.028-1.174c.108 0 .196.085.199.192.002.107-.082.197-.19.2L1.213 12.386h-.005zM1.665 18.23c-.07 0-.136-.037-.171-.097-.036-.06-.037-.135-.002-.196.034-.061.099-.1.169-.1l49.164-.922c.108-.001.197.085.2.193.001.108-.084.197-.192.2l-49.165.922h-.003zM2.314 23.584c-.107-.001-.193-.088-.193-.195 0-.107.085-.195.192-.198l48.803-.437c.107 0 .194.087.195.194 0 .108-.084.196-.191.199l-48.804.437h-.002zM2.934 29.853c-.107-.001-.193-.088-.194-.195 0-.107.085-.195.192-.198l47.894-.667c.108 0 .195.086.197.193.001.108-.084.196-.191.2l-47.895.667h-.003z" opacity=".39" transform="translate(0.000000, 9.000000) translate(32.492802, 12.474791) translate(7.250247, 35.627560)"/>
                                <path fill="#FFF" d="M3.435 34.914c-.107-.002-.194-.088-.195-.195 0-.107.084-.195.191-.198l47.683-.817c.07-.001.136.035.172.095.036.06.038.135.004.197-.034.061-.099.1-.169.1l-47.683.817h-.003z" transform="translate(0.000000, 9.000000) translate(32.492802, 12.474791) translate(7.250247, 35.627560)"/>
                            </g>
                        </g>
                    </g>
                    <g>
                        <g>
                            <path fill="url(#pdn5mduz5h)" d="M.752 2.973C.527 12.027-.201 43.258.147 54.325c.036 1.172.977 2.114 2.15 2.152 5.798.19 22.48.67 31.964.272 1.975-.08 3.546-1.684 3.588-3.66.197-9.503.632-36.232-.402-48.476-.124-1.467-1.276-2.637-2.74-2.782C28.392 1.199 11.619-.345 3.424.186 1.946.284.787 1.493.752 2.973z" transform="translate(0.000000, 9.000000) translate(104.527519, 54.962800)"/>
                            <path fill="#DDE5F5" d="M3.108 5.787c-.317 7.415-1.316 32.083-.999 41.205.046 1.333 1.098 2.411 2.43 2.49 5.483.32 19.547 1.028 27.59.384 1.448-.118 2.586-1.288 2.663-2.738.408-7.565 1.578-30.535 1.274-39.555-.05-1.438-1.163-2.615-2.597-2.742-5.932-.533-21.168-1.8-28.003-1.427-1.282.068-2.303 1.1-2.358 2.383z" transform="translate(0.000000, 9.000000) translate(104.527519, 54.962800)"/>
                            <path fill="#FFF" d="M4.054 6.683c-.295 7.03-1.225 30.417-.93 39.065.032 1.253 1.012 2.276 2.262 2.36 5.107.304 18.207.975 25.698.365 1.349-.11 2.408-1.22 2.48-2.596.38-7.173 1.47-28.949 1.187-37.5-.035-1.353-1.072-2.467-2.419-2.6C26.807 5.272 12.616 4.07 6.25 4.424c-1.204.075-2.155 1.053-2.196 2.26zM15.083 1.769c0 .277.217.506.494.52 1.37.073 5.228.276 6.952.376.16.009.317-.056.423-.178.106-.121.15-.284.12-.443l-.012-.057c-.044-.228-.233-.4-.464-.42-1.166-.107-4.683-.404-7.013-.32-.28.01-.5.241-.5.522z" transform="translate(0.000000, 9.000000) translate(104.527519, 54.962800)"/>
                        </g>
                        <g>
                            <path fill="#5C2D90" d="M23.757 5.57c-.07 2.75-2.12 4.93-4.58 4.868l-14.815-.374C1.902 10-.036 7.72.034 4.97l.001-.06C.105 2.158 2.155-.02 4.615.04L19.43.417c2.46.063 4.398 2.342 4.329 5.093l-.002.06z" transform="translate(0.000000, 9.000000) translate(104.527519, 54.962800) translate(8.107804, 15.358051)"/>
                            <g fill="#FFF">
                                <path d="M2.615 1.536c-.012.485-.144.855-.396 1.108-.251.254-.608.374-1.071.363L.936 3 .894 4.66l-.85-.022L.157.066l1.16.029c.889.023 1.32.503 1.297 1.44zm-1.661.728l.162.004c.209.005.366-.049.47-.16.106-.113.161-.299.168-.56.006-.24-.036-.418-.127-.536-.091-.118-.235-.18-.43-.185L.99.822.954 2.264zM5.146 4.766l-.234-1.16-1.191-.03-.292 1.147-.85-.022L3.826.14 4.98.169l1.019 4.619-.853-.022zm-.374-1.918L4.555 1.78c-.013-.065-.042-.228-.086-.489-.044-.26-.07-.435-.08-.523-.03.179-.07.376-.117.59-.047.215-.168.705-.363 1.47l.863.021zM7.464 2.056L8.119.267 9.01.289 7.856 3.001 7.81 4.833 6.972 4.812 7.017 3.014 6.005.213 6.903.236z" transform="translate(0.000000, 9.000000) translate(104.527519, 54.962800) translate(8.107804, 15.358051) translate(7.328207, 2.494709)"/>
                            </g>
                        </g>
                    </g>
                    <path fill="url(#5guvji64ii)" d="M60.274 100.607c-.243 0-.49-.117-.752-.358-1.03-.946-1.268-2.427-1.327-3.813-.497.56-1.007 1.104-1.511 1.641l-.17-.16c.558-.595 1.124-1.198 1.67-1.822-.046-1.867.039-3.734.253-5.588.13-1.126.318-2.316.805-3.4.153-.342.407-.83.84-1.133.445-.311 1.027-.347 1.414-.086.439.294.558.861.61 1.262.309 2.408-.632 4.618-1.476 6.048-.631 1.07-1.398 2.05-2.21 2.982.04 1.406.232 2.952 1.26 3.897.225.206.426.303.613.296.31-.011.553-.3.749-.58.85-1.216 1.519-2.55 1.983-3.96.053-.418.17-.826.347-1.208l.22.077c-.098.4-.21.794-.337 1.183-.05.406-.034.817.045 1.218.044.219.23.938.775 1.042.411.079.816-.209 1.274-.905l1.598-2.43-.148.637c-.083.359-.22 1.217.303 1.433.3.123.616-.054.95-.242.322-.182.657-.37 1.026-.321l.12.016-.02.12c-.086.498-.042 1.111.362 1.2.266.06.482-.14.732-.372.21-.195.43-.396.708-.464l.055.228c-.22.053-.415.234-.604.408-.273.253-.556.514-.941.429-.526-.117-.637-.746-.562-1.339-.251.01-.5.151-.762.298-.368.207-.748.421-1.153.255-.38-.156-.56-.57-.524-1.165l-.945 1.438c-.325.493-.835 1.135-1.513 1.006-.465-.089-.824-.547-.96-1.226-.036-.18-.06-.364-.07-.548-.452 1.176-1.045 2.293-1.768 3.326-.228.327-.518.664-.931.68h-.028zm.615-14.66c-.24.003-.476.079-.672.218-.386.27-.62.722-.762 1.037-.473 1.055-.657 2.225-.785 3.331-.204 1.759-.29 3.528-.258 5.298.752-.857 1.427-1.778 2.017-2.752.825-1.399 1.746-3.557 1.445-5.9-.073-.565-.234-.914-.508-1.097-.142-.092-.308-.139-.477-.135z" transform="translate(0.000000, 9.000000)"/>
                    <g fill="#FFF">
                        <path d="M21.682.387l-.458.37c-.055.046-.13.058-.197.033-.066-.025-.114-.084-.125-.155-.011-.07.017-.141.072-.185l.002-.001.46-.369c.085-.067.21-.054.277.031.068.085.054.208-.03.276zM20.158 1.625l-.454.374c-.087.072-.215.06-.286-.027-.072-.086-.06-.214.027-.285v-.002l.459-.372c.086-.068.211-.055.28.03.07.086.058.211-.026.282zM18.648 2.878l-.45.38c-.087.075-.218.064-.293-.023-.074-.088-.064-.219.024-.294h.001l.453-.38c.057-.047.134-.06.203-.035.07.025.12.086.133.158.013.073-.014.147-.071.194zM17.157 4.152l-.443.387-.001.001c-.057.051-.138.068-.21.043-.073-.024-.127-.086-.142-.161-.014-.076.013-.153.072-.203l.447-.387c.089-.074.22-.064.296.023.076.087.068.22-.018.297h-.001zM15.688 5.452l-.435.395v.001c-.057.058-.142.08-.22.057-.077-.023-.135-.088-.151-.167-.016-.08.014-.161.077-.212v-.001l.44-.395c.089-.08.226-.073.306.015.08.089.073.226-.016.306zM14.248 6.781l-.426.406-.001.002c-.09.084-.23.081-.315-.008-.085-.09-.082-.23.007-.315l.001-.001.431-.406c.089-.084.229-.08.313.008.084.089.08.23-.008.313l-.002.001zM12.842 8.146l-.415.417-.001.001c-.058.058-.142.08-.22.06-.08-.021-.14-.083-.162-.161-.021-.079.001-.163.058-.22l.001-.001.42-.418c.057-.057.14-.08.219-.058.078.02.139.082.16.16.02.078-.002.161-.059.219l-.001.001zM11.475 9.549l-.402.429-.001.001c-.088.094-.235.099-.33.011-.093-.088-.098-.235-.01-.33l.407-.43c.088-.093.234-.097.327-.01.093.088.098.234.01.327l-.001.002zM10.154 10.992l-.386.442-.001.002c-.087.098-.237.107-.335.021-.099-.086-.11-.235-.024-.334l.001-.001.392-.444c.087-.095.234-.103.33-.018.097.085.108.232.025.33l-.002.002zM8.887 12.48l-.37.457-.001.002c-.084.104-.237.12-.342.036-.104-.085-.12-.238-.035-.342l.375-.46c.087-.094.232-.104.331-.023.1.08.118.225.043.329l-.001.002zM7.678 14.017l-.35.47-.002.004c-.052.073-.14.113-.23.103-.089-.01-.166-.067-.2-.15-.036-.083-.023-.178.033-.249v-.001l.357-.475c.082-.107.235-.128.343-.047.108.08.131.233.051.342l-.002.003zM6.537 15.604l-.327.485-.002.003c-.05.076-.137.118-.228.112-.09-.006-.17-.06-.21-.141-.04-.082-.032-.178.019-.253v-.001l.334-.49c.079-.114.234-.143.348-.066.115.078.145.233.069.348l-.003.003zM5.473 17.24l-.304.501-.002.004c-.047.08-.134.128-.227.127-.093-.002-.178-.053-.222-.135-.044-.082-.041-.18.008-.26l.31-.507c.074-.12.232-.159.353-.085.12.074.159.232.085.352l-.001.004zM4.49 18.927l-.277.515-.002.004c-.07.128-.228.176-.356.107-.128-.07-.176-.229-.107-.356v-.002l.285-.52c.069-.128.227-.175.354-.106.127.069.174.227.105.354l-.002.004zM3.597 20.661l-.25.53-.001.004c-.04.087-.124.146-.22.154-.096.009-.19-.035-.244-.114-.054-.08-.062-.182-.02-.269l.256-.537c.063-.133.221-.19.354-.126.133.063.19.221.127.354l-.002.004zM2.802 22.441l-.219.543-.001.004c-.059.136-.216.2-.353.146-.138-.056-.206-.21-.154-.35h.001l.225-.551c.056-.139.214-.206.353-.15.139.057.206.215.15.354l-.002.004zM2.11 24.263l-.185.555-.002.005c-.03.093-.11.162-.205.182-.097.02-.196-.014-.26-.088-.066-.073-.087-.176-.056-.269l.19-.565c.03-.094.109-.165.206-.186.097-.02.198.014.263.089s.085.179.051.272l-.001.005zM1.534 26.123l-.148.565-.002.005c-.025.096-.099.17-.194.197-.096.026-.198-.001-.268-.07-.07-.07-.098-.172-.072-.268l.152-.575c.025-.095.1-.17.195-.196.095-.025.197.002.267.071.07.07.097.171.072.267l-.002.004zM1.084 28.016l-.109.572-.001.006c-.017.1-.087.181-.181.215-.095.033-.2.013-.276-.053-.076-.066-.11-.167-.09-.266l.112-.584c.02-.098.089-.178.182-.21.094-.033.198-.013.273.052.075.065.11.165.091.263v.005zM.77 29.934l-.067.579-.001.006c-.012.1-.075.185-.167.225-.092.04-.198.027-.278-.032-.08-.06-.123-.158-.111-.257l.069-.592c.018-.153.157-.263.31-.245.153.018.263.157.245.31v.006zM.598 31.869l-.02.582v.007c-.004.101-.06.193-.15.24-.09.048-.197.044-.283-.01-.085-.054-.135-.15-.13-.25l.022-.597c.006-.155.136-.276.292-.27.155.006.276.136.27.291v.007zM.585 33.81l.028.581v.007c.008.157-.113.29-.269.297-.156.008-.29-.113-.297-.27L.02 33.83c-.008-.156.113-.288.269-.295.156-.008.288.113.296.269v.007zM.736 35.744l.077.577v.008c.021.156-.088.299-.244.32-.157.02-.3-.09-.32-.245l-.079-.592c-.017-.155.092-.295.246-.315.154-.02.296.087.319.24v.007zM1.048 37.66l.126.568.001.007c.034.155-.063.308-.218.342-.155.034-.308-.063-.342-.218l-.127-.584c-.022-.1.01-.204.087-.272.075-.07.182-.093.28-.062.097.031.17.112.192.212l.001.007zM1.523 39.54l.174.556.002.007c.03.099.007.206-.063.282-.07.076-.175.109-.275.086-.1-.022-.182-.097-.213-.195l-.177-.57c-.048-.153.037-.314.19-.362.151-.047.312.038.36.19l.002.007zM2.16 41.372l.223.537.003.007c.04.096.026.206-.037.288-.063.082-.166.125-.268.111-.103-.013-.191-.08-.23-.176l-.23-.553c-.06-.148.011-.316.159-.377.147-.06.316.009.377.156l.003.007zM2.961 43.135l.273.513.004.008c.051.092.049.205-.007.295-.055.09-.155.143-.26.138-.106-.004-.2-.065-.249-.16l-.28-.528c-.048-.092-.044-.203.012-.291.055-.089.153-.14.257-.137.104.004.199.063.247.155l.003.007zM3.927 44.813l.322.483.005.007c.059.088.066.2.02.294-.047.094-.14.157-.245.163-.105.007-.206-.043-.264-.13v-.001l-.33-.499c-.088-.134-.05-.314.084-.403.133-.089.314-.054.404.08l.004.006zM5.057 46.382l.37.446.007.007c.067.082.086.193.05.292-.037.099-.124.17-.228.188-.104.018-.21-.021-.277-.102l-.382-.462c-.1-.126-.082-.309.042-.412.124-.102.308-.086.412.036l.006.007zM6.347 47.82l.417.402.007.007c.117.114.12.301.006.419-.113.117-.3.121-.418.009l-.431-.417c-.118-.114-.12-.302-.007-.42.114-.117.302-.12.42-.006l.006.006zM7.789 49.103l.46.351.008.006c.13.1.156.288.056.42-.1.13-.288.155-.42.055l-.475-.364c-.128-.102-.15-.286-.051-.416.099-.129.283-.155.414-.058l.008.006zM9.368 50.212l.497.298.008.005c.143.085.19.27.104.412-.085.143-.27.19-.412.104l-.515-.309c-.091-.055-.147-.155-.145-.262.002-.107.06-.206.154-.258.094-.052.209-.05.3.006l.009.004zM11.062 51.14l.526.243.01.004c.15.07.217.249.147.4-.07.152-.249.219-.4.149h-.001l-.544-.251c-.1-.045-.167-.14-.177-.247-.01-.109.038-.214.127-.277.09-.062.205-.071.304-.024l.008.003zM12.846 51.884l.55.188.008.003c.156.056.24.227.185.384-.053.158-.224.243-.382.191l-.566-.194c-.158-.055-.241-.227-.187-.385.054-.158.226-.242.384-.19l.008.003zM14.697 52.446l.565.134.009.002c.106.025.19.105.222.21.032.104.005.217-.07.297-.075.08-.186.113-.293.088l-.582-.139c-.107-.024-.193-.104-.225-.21-.031-.104-.004-.218.071-.298.076-.08.189-.112.295-.086l.008.002zM16.595 52.829l.575.08.008.002c.109.015.201.087.242.189.042.102.025.218-.042.304-.068.087-.176.13-.285.116l-.593-.084c-.108-.016-.2-.088-.241-.19-.041-.101-.025-.217.043-.303.068-.087.176-.13.285-.115l.008.001zM18.52 53.037l.581.03h.008c.17.008.302.153.293.324-.008.17-.154.302-.324.293l-.598-.031c-.11-.005-.21-.068-.262-.167-.05-.099-.044-.217.016-.31.061-.093.167-.146.278-.14l.008.001zM20.458 53.075l.582-.022h.008c.111-.005.217.05.277.145.06.094.064.213.012.312-.053.099-.154.161-.266.165l-.599.02c-.11.005-.215-.05-.274-.145-.059-.094-.063-.212-.01-.31.051-.098.152-.16.262-.165h.008zM22.392 52.944l.577-.071.008-.001c.17-.02.325.102.346.272.021.17-.1.326-.27.348l-.593.073c-.171.02-.327-.101-.348-.272-.02-.171.101-.327.272-.348h.008zM24.307 52.648l.57-.12.007-.002c.11-.025.226.011.302.095.076.084.101.202.066.31-.036.107-.126.187-.237.21l-.586.123c-.168.033-.332-.075-.368-.243-.035-.168.071-.333.239-.371l.007-.002zM26.19 52.189l.557-.168.007-.002c.108-.032.225-.005.307.072.083.078.117.193.092.303-.026.11-.109.198-.217.23l-.572.171c-.167.05-.343-.045-.393-.212-.05-.167.045-.342.212-.392l.006-.002zM28.031 51.58l.544-.21.006-.003c.107-.044.228-.026.318.045.09.072.134.186.115.3-.018.113-.096.208-.204.247l-.557.214c-.163.063-.347-.018-.41-.182s.019-.347.182-.41l.006-.001zM29.823 50.833l.527-.25.006-.002c.158-.07.343 0 .416.156.074.156.011.342-.143.421l-.54.254c-.103.051-.226.043-.321-.023-.095-.065-.148-.176-.138-.291.01-.115.082-.216.188-.263l.005-.002zM31.558 49.96l.509-.286.005-.003c.155-.086.35-.031.437.124.087.154.032.35-.123.437l-.52.29c-.1.056-.223.054-.321-.004-.098-.06-.158-.166-.156-.28.001-.115.064-.22.164-.276l.005-.002zM33.232 48.97l.489-.317.005-.004c.15-.097.35-.054.447.096.097.15.054.35-.095.446l-.5.324c-.098.064-.222.072-.326.02-.103-.053-.17-.158-.176-.274-.005-.116.052-.226.15-.288l.006-.002zM34.84 47.876l.468-.347.005-.003c.093-.07.216-.085.323-.038.107.046.181.146.194.262.013.115-.037.23-.131.298l-.48.353c-.143.106-.346.075-.452-.069-.107-.144-.076-.347.068-.453l.004-.003zM36.379 46.688l.448-.375.004-.003c.14-.112.342-.092.457.045.114.137.097.34-.038.456l-.459.38c-.138.116-.344.097-.459-.042-.115-.138-.096-.344.043-.458l.004-.003zM37.85 45.411l.427-.398.004-.004c.133-.121.339-.113.462.019.122.131.116.337-.014.461l-.437.406c-.133.123-.34.115-.463-.017-.123-.133-.115-.34.017-.463l.003-.004zM39.25 44.058l.407-.421.003-.004c.082-.085.203-.12.317-.09.114.028.205.115.237.228.033.114.002.236-.08.32l-.414.428c-.082.085-.203.12-.317.09-.114-.028-.204-.115-.236-.229-.033-.113-.002-.235.08-.32l.003-.002zM40.58 42.632l.383-.44.004-.005c.12-.138.33-.152.468-.032s.152.33.032.468l-.392.448c-.121.135-.328.147-.465.028-.136-.12-.15-.326-.033-.464l.002-.003zM41.824 41.14l.353-.464.004-.006c.113-.142.32-.168.463-.058.145.11.175.315.068.462l-.363.475c-.072.094-.189.143-.307.128-.118-.016-.218-.093-.264-.202-.046-.11-.03-.236.042-.33l.004-.006zM42.955 39.565l.312-.49.005-.007c.103-.147.303-.187.455-.09.151.096.2.295.11.45l-.323.505c-.065.1-.178.159-.297.154-.12-.006-.227-.075-.282-.18-.055-.107-.049-.234.015-.335l.005-.007zM43.938 37.902l.259-.516.005-.01c.053-.11.16-.182.282-.19.12-.007.237.05.303.152s.072.231.017.34l-.27.536c-.084.166-.287.233-.452.15-.166-.084-.233-.286-.15-.452l.006-.01zM44.725 36.149l.189-.543.005-.014c.04-.114.137-.198.256-.22.119-.023.24.02.32.11.078.092.103.219.063.333l-.2.57c-.039.116-.137.202-.256.225-.12.023-.243-.02-.322-.112-.079-.093-.102-.221-.06-.336l.005-.013zM45.255 34.314l.099-.563.003-.018c.033-.184.208-.307.393-.275.185.032.308.208.277.392l-.106.6c-.021.119-.105.218-.219.26-.114.04-.241.018-.334-.06-.093-.078-.137-.2-.116-.32l.003-.016zM45.459 32.427l-.012-.568v-.021c-.002-.187.147-.34.334-.344.186-.004.342.143.349.33l.011.61c.003.123-.06.236-.165.3-.104.062-.234.065-.34.006-.107-.059-.174-.17-.177-.292v-.02zM45.279 30.547l-.135-.549-.005-.023c-.045-.185.068-.37.252-.416.184-.045.37.068.415.252v.001l.145.596c.034.12-.001.25-.09.338-.09.088-.221.12-.341.083-.12-.037-.21-.136-.236-.26l-.005-.022zM44.687 28.76l-.253-.508-.01-.02c-.055-.11-.047-.241.02-.344.069-.103.186-.162.31-.154.123.007.232.08.287.19l.273.548c.055.11.046.241-.022.344-.068.102-.185.16-.308.153-.123-.007-.232-.08-.287-.19l-.01-.02zM43.722 27.134l-.352-.447-.013-.016c-.08-.097-.102-.23-.057-.348.046-.117.152-.2.277-.218.125-.016.25.036.325.138l.376.48c.115.15.088.365-.061.482-.15.117-.364.092-.483-.055l-.012-.016zM42.452 25.725l-.43-.375-.014-.012c-.094-.082-.137-.208-.113-.33.024-.122.111-.223.229-.263.118-.04.248-.015.342.067l.458.4c.096.082.14.209.116.332-.024.123-.112.224-.23.264-.12.04-.25.013-.344-.071l-.014-.012zM40.945 24.568l-.49-.295-.015-.01c-.166-.099-.22-.313-.12-.479.1-.165.314-.219.48-.12l.521.314c.163.1.215.313.116.477-.098.164-.31.219-.476.123l-.016-.01zM39.258 23.69l-.533-.204-.017-.007c-.178-.07-.267-.27-.2-.448.069-.18.269-.27.448-.202l.568.216c.18.068.27.27.202.45s-.27.27-.45.201l-.018-.007zM37.444 23.125l-.56-.102-.02-.003c-.187-.036-.31-.215-.276-.402.034-.187.212-.312.4-.28l.6.109c.186.036.309.215.275.402-.034.186-.211.311-.398.28h-.001l-.02-.004zM35.556 22.905l-.572-.002h-.017c-.123 0-.237-.066-.298-.173-.061-.107-.06-.238 0-.345.063-.106.177-.171.3-.17h.606c.19 0 .345.155.345.346 0 .19-.155.345-.346.344h-.018zM33.652 23.007l-.567.09-.015.002c-.183.021-.35-.105-.378-.287-.029-.18.09-.353.27-.39l.598-.095c.187-.03.363.097.393.285.03.187-.098.363-.285.393l-.016.002zM31.782 23.405l-.548.173-.014.005c-.18.056-.371-.043-.428-.223-.057-.18.043-.37.222-.428l.576-.182c.18-.057.372.042.429.222.057.18-.043.372-.222.429h-.001l-.014.004zM29.985 24.07l-.52.247-.013.006c-.17.08-.372.008-.452-.161-.08-.17-.009-.372.16-.452l.545-.26c.169-.077.369-.005.449.163.08.168.01.369-.156.451h-.001l-.012.006zM28.29 24.972l-.485.313-.01.007c-.157.095-.36.048-.46-.105-.099-.154-.058-.359.093-.462l.506-.328c.157-.102.366-.057.468.1.102.156.057.366-.1.467l-.012.008zM26.723 26.085l-.44.372-.01.008c-.143.118-.353.099-.472-.042-.119-.14-.102-.351.038-.472l.46-.388c.092-.078.218-.1.331-.06.113.04.196.138.217.257.022.118-.022.239-.114.316l-.01.009zM25.31 27.387l-.39.425-.008.008c-.126.13-.333.137-.467.014-.134-.122-.145-.33-.025-.466l.406-.442c.125-.133.335-.14.47-.017.134.124.145.333.023.47l-.009.008zM24.064 28.855l-.342.467-.006.009c-.108.148-.316.18-.465.072-.148-.108-.18-.316-.072-.464l.353-.486c.069-.1.186-.155.307-.143.121.011.226.088.274.2.048.11.032.24-.043.336l-.006.009zM22.984 30.453l-.292.501-.005.009c-.092.158-.294.211-.452.12-.158-.092-.212-.295-.12-.453l.3-.518c.06-.102.17-.165.288-.165.118 0 .227.063.286.166.06.103.06.229 0 .331l-.005.01zM22.069 32.156l-.243.527-.004.008c-.076.165-.271.237-.437.161-.165-.076-.237-.271-.161-.436l.25-.544c.077-.163.27-.234.435-.159.164.076.237.269.164.434l-.004.009zM21.313 33.938l-.196.547-.003.007c-.064.167-.249.252-.416.191-.168-.06-.257-.243-.2-.412l.2-.562c.064-.168.25-.254.418-.194.169.06.258.245.2.415l-.003.008zM20.71 35.78l-.154.563-.002.007c-.03.112-.118.2-.23.23-.113.03-.233-.003-.315-.086-.082-.082-.114-.202-.083-.315l.156-.577c.048-.172.226-.273.399-.226.172.047.275.223.23.396v.001l-.002.007zM20.249 37.666l-.111.572-.002.007c-.034.176-.204.29-.38.257-.175-.034-.29-.204-.256-.38l.113-.586c.022-.114.103-.207.213-.245.11-.038.23-.015.318.061s.128.193.106.307l-.001.007zM19.925 39.582l-.072.577v.007c-.027.172-.185.291-.358.27-.173-.021-.297-.176-.282-.349l.072-.59c.014-.115.088-.214.194-.259.106-.045.229-.03.32.04.093.069.141.182.127.296l-.001.008zM19.731 41.514l-.033.583v.006c-.013.174-.163.307-.338.297-.175-.01-.31-.158-.302-.333l.033-.595c.011-.176.162-.31.338-.3.176.01.31.16.303.336l-.001.006zM19.664 43.457l.004.584v.006c.002.176-.14.32-.316.321-.176.001-.32-.14-.321-.316l-.005-.596c-.007-.117.051-.23.152-.29.1-.062.227-.063.328-.004.102.06.163.17.158.289v.006zM19.721 45.401l.041.582v.006c.01.173-.12.323-.294.335-.173.012-.324-.117-.338-.29l-.043-.594c-.013-.175.119-.327.294-.34.175-.012.327.12.34.295v.006zM19.899 47.338l.076.579v.006c.02.17-.1.327-.271.35-.17.022-.328-.097-.353-.267l-.08-.59c-.022-.173.1-.332.272-.355.173-.023.332.098.355.271v.006zM20.193 49.262l.11.573.001.006c.033.17-.078.334-.248.367-.17.033-.335-.078-.368-.248l-.113-.584c-.033-.17.078-.335.248-.369.17-.033.336.079.369.249v.006zM20.599 51.166l.143.566.001.005c.027.108-.005.223-.085.3-.08.078-.195.107-.302.077-.107-.03-.19-.115-.218-.223l-.146-.577c-.043-.167.058-.337.226-.38.167-.042.337.059.38.226v.006z" transform="translate(0.000000, 9.000000) translate(33.740157, 8.732728)"/>
                        <path d="M21.113 53.044l.174.558.002.005c.048.162-.043.334-.205.384-.161.051-.334-.037-.387-.199l-.179-.567c-.034-.106-.008-.222.067-.304.075-.082.188-.118.297-.094.108.025.196.105.229.211l.002.006zM21.73 54.891l.205.547.002.005c.038.103.019.219-.05.304-.07.085-.181.127-.29.108-.108-.018-.2-.092-.238-.195l-.21-.556c-.06-.16.022-.338.181-.398.16-.06.338.02.398.18l.002.005zM22.447 56.702l.234.535.002.005c.065.154-.006.332-.16.4-.153.067-.333-.002-.402-.154l-.24-.544c-.043-.1-.03-.217.035-.306.065-.088.172-.135.28-.123.11.012.204.081.249.181v.001l.002.005zM23.26 58.473l.263.523.002.004c.072.15.011.33-.138.405-.148.075-.33.017-.407-.13l-.268-.532c-.049-.097-.042-.214.018-.305s.164-.144.273-.137c.109.006.206.07.255.167l.003.005zM24.167 60.199l.29.509.002.004c.08.145.03.328-.115.41-.144.083-.328.034-.412-.11l-.295-.516c-.06-.095-.062-.214-.007-.31.055-.098.158-.157.27-.155.111.002.212.065.264.163l.003.005zM25.162 61.875l.316.493.003.004c.09.14.049.327-.091.417-.14.09-.327.05-.417-.09l-.322-.501c-.09-.14-.05-.328.09-.418.141-.09.328-.05.418.09v.001l.003.004zM26.244 63.497l.341.476.003.004c.097.134.066.322-.068.418-.135.097-.322.066-.419-.068l-.347-.483c-.065-.087-.078-.202-.034-.302.044-.099.138-.167.246-.177.108-.01.213.039.275.128l.003.004zM27.41 65.06l.365.458.003.003c.103.129.083.316-.046.42-.128.102-.316.082-.419-.047l-.372-.463c-.103-.129-.083-.317.046-.42.128-.103.316-.083.42.046l.003.004zM28.655 66.56l.388.438.003.003c.07.079.093.19.06.29-.034.1-.118.176-.222.197-.104.021-.211-.014-.281-.093l-.395-.443c-.071-.08-.095-.19-.062-.292.034-.101.119-.177.223-.198.105-.022.213.015.283.095l.003.003zM29.973 67.997l.41.418.002.003c.11.117.107.3-.008.413-.114.113-.298.112-.413 0l-.415-.424c-.11-.117-.106-.3.009-.413.114-.112.298-.112.412 0l.003.003zM31.36 69.37l.429.398.003.003c.118.11.125.296.015.414-.11.119-.296.125-.414.015l-.435-.404c-.117-.11-.123-.294-.014-.412.11-.118.294-.126.413-.018l.003.003zM32.81 70.676l.445.38.004.002c.12.104.133.286.03.407-.103.122-.284.138-.407.037l-.453-.383c-.08-.067-.12-.172-.1-.276.018-.103.09-.188.189-.223.098-.036.208-.015.288.053l.003.003zM34.317 71.916l.462.359.003.002c.125.099.146.279.05.404-.098.126-.278.15-.404.054l-.47-.363c-.083-.063-.127-.166-.113-.27.013-.103.082-.192.179-.23.097-.04.207-.024.29.041l.003.003zM35.877 73.089l.478.339.003.002c.084.06.13.159.12.261-.01.103-.073.192-.166.235-.093.043-.203.033-.287-.026l-.484-.342c-.087-.058-.136-.16-.127-.264.008-.104.073-.196.169-.24.095-.042.207-.03.29.033l.004.002zM37.487 74.195l.492.318.003.002c.132.086.17.263.084.395-.086.133-.262.171-.395.086l-.498-.322c-.133-.086-.172-.263-.086-.396s.263-.171.396-.085l.004.002zM39.141 75.233l.505.299.002.001c.134.081.178.254.099.389-.08.134-.253.18-.388.101l-.51-.3c-.136-.08-.181-.255-.101-.391.08-.136.254-.18.39-.1l.003.001zM40.836 76.205l.516.278.002.002c.136.075.185.245.112.38-.073.137-.243.189-.38.117l-.521-.28c-.136-.075-.186-.246-.113-.382.074-.137.243-.189.38-.117h.001l.003.002zM42.567 77.11l.526.258.003.001c.09.045.15.133.157.234.007.1-.04.196-.124.252-.083.056-.19.063-.28.019l-.533-.26c-.14-.069-.197-.237-.129-.377.069-.14.237-.198.377-.13l.003.002zM44.333 77.948l.536.24h.003c.14.063.204.228.141.37-.062.14-.227.204-.368.14l-.542-.24c-.14-.063-.203-.227-.14-.368.062-.14.226-.204.367-.143l.003.001zM46.129 78.722l.544.219.003.001c.14.059.207.219.15.36-.056.14-.215.21-.357.155l-.55-.22c-.093-.037-.158-.12-.172-.22-.014-.097.025-.196.103-.257.078-.062.183-.077.276-.04l.003.002zM47.952 79.43l.552.2h.003c.141.053.214.21.162.352-.05.142-.207.217-.35.167l-.558-.2c-.092-.034-.16-.114-.178-.212-.017-.097.018-.196.094-.26.075-.063.179-.082.272-.049l.003.002zM49.799 80.072l.559.18.002.001c.144.047.224.201.177.345-.046.144-.2.224-.345.177l-.564-.18c-.143-.048-.221-.202-.175-.345.046-.144.199-.223.343-.179l.003.001zM51.668 80.651l.564.162h.002c.093.027.165.101.189.195.023.094-.005.193-.074.26-.07.068-.17.093-.263.066l-.57-.16c-.145-.04-.23-.19-.188-.336.04-.144.19-.229.335-.188h.002l.003.001zM53.553 81.168l.57.143h.002c.14.037.226.18.19.322-.034.142-.177.229-.319.195l-.574-.142c-.143-.035-.231-.18-.196-.323.036-.143.18-.231.324-.196h.001l.002.001zM55.455 81.625l.574.125h.002c.14.032.227.17.197.31-.03.14-.167.229-.307.2l-.579-.123c-.092-.019-.168-.086-.198-.175-.03-.09-.008-.19.055-.259.064-.07.16-.1.253-.08l.003.002zM57.372 82.022l.577.108h.002c.139.026.23.16.205.298-.026.14-.159.23-.298.205l-.582-.106c-.138-.027-.229-.16-.204-.298.025-.138.157-.23.296-.208h.001l.003.001zM59.3 82.362l.58.091h.002c.137.021.23.15.21.286-.022.137-.15.231-.287.21l-.585-.089c-.137-.021-.232-.15-.211-.287.02-.138.15-.233.287-.212h.001l.002.001zM61.236 82.647l.583.075h.002c.133.018.227.14.21.274-.016.133-.138.229-.271.213l-.587-.072c-.136-.017-.232-.14-.216-.276.017-.136.14-.232.276-.215h.003zM63.181 82.878l.585.06h.002c.132.013.229.13.215.263-.013.132-.13.229-.263.216l-.589-.057c-.133-.013-.23-.131-.217-.265.013-.133.131-.23.264-.217h.003zM65.131 83.058l.586.044h.001c.13.01.228.123.218.253-.01.13-.122.227-.252.218l-.589-.042c-.129-.011-.225-.124-.216-.253.01-.129.12-.227.25-.22h.002zM67.085 83.19l.587.03h.002c.127.005.225.114.219.24-.006.128-.114.226-.242.22l-.59-.027c-.083-.004-.157-.052-.195-.125-.039-.074-.034-.162.01-.232.045-.07.124-.11.207-.107h.002zM69.042 83.273l.587.016h.002c.12.01.212.111.209.231-.003.12-.1.218-.22.22l-.591-.013c-.126-.003-.225-.107-.222-.232.002-.126.106-.225.232-.222h.003zM71 83.312l.589.003h.001c.122 0 .22.1.22.222s-.1.22-.221.22h-.591c-.08.002-.156-.04-.197-.11-.041-.07-.041-.156 0-.225.04-.07.116-.112.197-.11H71zM72.962 83.308l.588-.01h.001c.119-.001.217.094.219.212.002.119-.092.217-.21.22l-.592.012c-.119 0-.216-.094-.218-.213-.002-.118.09-.217.21-.221h.002zM74.923 83.263l.588-.02h.001c.116-.005.214.085.219.202.004.116-.086.214-.203.218l-.59.024c-.076.003-.148-.034-.188-.098-.04-.064-.044-.145-.009-.212.035-.068.104-.11.18-.114h.002zM76.883 83.18l.588-.033h.001c.114-.006.21.08.217.194.007.114-.08.21-.193.217l-.59.036c-.114.005-.21-.082-.217-.195-.007-.113.078-.21.192-.22h.002zM78.842 83.06l.587-.044h.001c.11-.008.207.075.215.185.009.11-.074.207-.185.216l-.589.046c-.107.002-.197-.08-.206-.187-.008-.107.068-.202.175-.217h.002zM80.797 82.904l.345-.031c.07-.007.138.024.178.082.04.057.048.131.019.195-.03.064-.09.107-.16.114l-.346.033c-.108.008-.202-.071-.212-.178-.01-.108.067-.204.175-.215h.001z" transform="translate(0.000000, 9.000000) translate(33.740157, 8.732728)"/>
                    </g>
                    <g>
                        <path fill="#C2DEB7" d="M2.948 3.436L3.336 6.288 5.101 4.799z" transform="translate(0.000000, 9.000000) translate(49.565966, 4.211068)"/>
                        <path fill="url(#vbkz2uednj)" d="M15.55.054L8.766 7.858c-.13.15-.315.24-.513.25-.197.01-.39-.061-.535-.196L.141.807C.054.726.025.6.068.489.11.378.217.304.336.302L15.549.054z" transform="translate(0.000000, 9.000000) translate(49.565966, 4.211068)"/>
                        <path fill="#C2DEB7" d="M2.949 3.437L15.549 0.054 4.168 4.587 4.242 5.382z" transform="translate(0.000000, 9.000000) translate(49.565966, 4.211068)"/>
                        <path fill="#C2DEB7" d="M4.896 5.264L3.336 6.288 4.168 4.587z" transform="translate(0.000000, 9.000000) translate(49.565966, 4.211068)"/>
                    </g>
                </g>
            </g>
        </g>
    </g>
</svg>
